# xmcd CD database file
#
# Track frame offsets:
#	150
#	13245
#	27637
#	42512
#	60137
#	76472
#	95920
#	111520
#	130467
#	147690
#
# Disc length: 2172 seconds
#
# Revision: 10
# Processed by: cddbd v1.5.2PL0 Copyright (c) Steve Scherf et al.
# Submitted via: CDex 1.60beta1-cs1
#
DISCID=98087a0a
DTITLE=Shelby Lynne - I Am Shelby Lynne
DYEAR=1998
DGENRE=Pop
TTITLE0=Your Lies
TTITLE1=Leavin'
TTITLE2=Life isBad
TTITLE3=Thought it Would Be Easier
TTITLE4=Gotta Get Back
TTITLE5=Why Can't You Be?
TTITLE6=Lookin' Up
TTITLE7=Dreamsome
TTITLE8=Where I'm From
TTITLE9=Black Light Blue
EXTD=YEAR: 1998
EXTT0=
EXTT1=
EXTT2=
EXTT3=
EXTT4=
EXTT5=
EXTT6=
EXTT7=
EXTT8=
EXTT9=
PLAYORDER=
